<?xml version="1.0" encoding="UTF-8"?>
<svg width="12px" height="13px" viewBox="0 0 12 13" version="1.1" xmlns="http://www.w3.org/2000/svg" xmlns:xlink="http://www.w3.org/1999/xlink">
    <title>形状结合备份 4</title>
    <g id="页面-1" stroke="none" stroke-width="1" fill="none" fill-rule="evenodd">
        <g id="赛博朋克" transform="translate(-218.000000, -172.000000)" fill="#0F000F">
            <g id="编组-2" transform="translate(130.000000, 146.000000)">
                <g id="形状结合备份-23" transform="translate(88.000000, 26.000000)">
                    <path d="M12,2.32702746e-13 L12,3 L7.369,3 L5.586,5.084 L7.2588439,6.63724442 L6.46326237,7.50794157 L4.819,5.98 L3,8.107 L3,13 L-4.4408921e-16,13 L4.4408921e-16,7 L0.039,7 L0.0240696404,6.98553478 L2.626,3.943 L0.98765284,2.42094644 L1.78323437,1.55024929 L3.393,3.046 L6,7.99360578e-15 L6,0.001 L6,2.32702746e-13 L12,2.32702746e-13 Z" id="形状结合备份-4" transform="translate(6.000000, 6.500000) scale(-1, -1) translate(-6.000000, -6.500000) "></path>
                </g>
            </g>
        </g>
    </g>
</svg>