<svg xmlns="http://www.w3.org/2000/svg" x="0px" y="0px" viewBox="0 0 90.22 80.01" style="vertical-align: middle; max-width: 100%;" width="100%"><g>
	<path d="M60.95,20.42l-13.63,6.26l-17.81-6.69l9.51-16.47c2.7-4.69,9.47-4.69,12.18,0L60.95,20.42z" fill="rgb(60,102,77)"></path>
	<polygon points="69.35,34.96 52.59,28.67 62.97,23.9" fill="rgb(60,102,77)"></polygon>
	<polygon points="42.21,29.03 17.81,40.25 27.49,23.5" fill="rgb(60,102,77)"></polygon>
	<path d="M77.45,49L20.06,80.01H7.04c-5.41,0-8.8-5.86-6.09-10.55l13.4-23.21l33.14-15.24l25.01,9.4L77.45,49   z" fill="rgb(60,102,77)"></path>
	<path d="M83.18,80.01h-54.7l50.98-27.55l9.81,17C91.97,74.15,88.59,80.01,83.18,80.01z" fill="rgb(60,102,77)"></path>
</g></svg>